<mxfile host="app.diagrams.net" agent="Mozilla/5.0 (Windows NT 10.0; Win64; x64) AppleWebKit/537.36 (KHTML, like Gecko) Chrome/136.0.0.0 Safari/537.36" version="27.0.6">
  <diagram name="Página-1" id="tM3ftosBq5wTvWjN4mbQ">
    <mxGraphModel dx="1489" dy="917" grid="1" gridSize="10" guides="1" tooltips="1" connect="1" arrows="1" fold="1" page="1" pageScale="1" pageWidth="827" pageHeight="1169" math="0" shadow="0">
      <root>
        <mxCell id="0" />
        <mxCell id="1" parent="0" />
        <mxCell id="7ZSRkaOjpOQk4Y71W81P-1" value="&lt;font style=&quot;font-size: 12px;&quot;&gt;Menu Hábitos&lt;/font&gt;" style="ellipse;whiteSpace=wrap;html=1;" parent="1" vertex="1">
          <mxGeometry x="280" y="50" width="80" height="80" as="geometry" />
        </mxCell>
        <mxCell id="7ZSRkaOjpOQk4Y71W81P-2" value="&quot;MENU HÁBITOS&lt;div&gt;1. Inserir Hábito&lt;div&gt;2. Visualizar&amp;nbsp;&lt;span style=&quot;background-color: transparent; color: light-dark(rgb(0, 0, 0), rgb(255, 255, 255));&quot;&gt;Progresso nos Hábitos&lt;/span&gt;&lt;/div&gt;&lt;div&gt;3.Editar Hábito&lt;/div&gt;&lt;div&gt;4.&amp;nbsp;&lt;span style=&quot;background-color: transparent; color: light-dark(rgb(0, 0, 0), rgb(255, 255, 255));&quot;&gt;Deletar Hábito&quot;&lt;/span&gt;&lt;/div&gt;&lt;/div&gt;" style="shape=document;whiteSpace=wrap;html=1;boundedLbl=1;" parent="1" vertex="1">
          <mxGeometry x="392.5" y="40" width="152.5" height="130" as="geometry" />
        </mxCell>
        <mxCell id="7ZSRkaOjpOQk4Y71W81P-9" style="edgeStyle=orthogonalEdgeStyle;rounded=0;orthogonalLoop=1;jettySize=auto;html=1;exitX=0.5;exitY=1;exitDx=0;exitDy=0;exitPerimeter=0;" parent="1" source="7ZSRkaOjpOQk4Y71W81P-4" edge="1">
          <mxGeometry relative="1" as="geometry">
            <mxPoint x="470" y="290" as="targetPoint" />
          </mxGeometry>
        </mxCell>
        <mxCell id="7ZSRkaOjpOQk4Y71W81P-7" value="" style="endArrow=classic;html=1;rounded=0;entryX=0.5;entryY=0;entryDx=0;entryDy=0;entryPerimeter=0;exitX=0.5;exitY=0.878;exitDx=0;exitDy=0;exitPerimeter=0;" parent="1" source="7ZSRkaOjpOQk4Y71W81P-2" target="7ZSRkaOjpOQk4Y71W81P-4" edge="1">
          <mxGeometry width="50" height="50" relative="1" as="geometry">
            <mxPoint x="450" y="160" as="sourcePoint" />
            <mxPoint x="500" y="110" as="targetPoint" />
          </mxGeometry>
        </mxCell>
        <mxCell id="7ZSRkaOjpOQk4Y71W81P-12" style="edgeStyle=orthogonalEdgeStyle;rounded=0;orthogonalLoop=1;jettySize=auto;html=1;exitX=1;exitY=0.5;exitDx=0;exitDy=0;entryX=0;entryY=0.5;entryDx=0;entryDy=0;" parent="1" source="7ZSRkaOjpOQk4Y71W81P-10" target="7ZSRkaOjpOQk4Y71W81P-11" edge="1">
          <mxGeometry relative="1" as="geometry" />
        </mxCell>
        <mxCell id="7ZSRkaOjpOQk4Y71W81P-19" style="edgeStyle=orthogonalEdgeStyle;rounded=0;orthogonalLoop=1;jettySize=auto;html=1;exitX=0;exitY=0.5;exitDx=0;exitDy=0;" parent="1" source="7ZSRkaOjpOQk4Y71W81P-10" target="7ZSRkaOjpOQk4Y71W81P-15" edge="1">
          <mxGeometry relative="1" as="geometry" />
        </mxCell>
        <mxCell id="7ZSRkaOjpOQk4Y71W81P-10" value="Dígito igual a 1?" style="rhombus;whiteSpace=wrap;html=1;" parent="1" vertex="1">
          <mxGeometry x="419.53" y="290" width="100.94" height="100" as="geometry" />
        </mxCell>
        <mxCell id="7ZSRkaOjpOQk4Y71W81P-11" value="Inserir Hábito" style="ellipse;whiteSpace=wrap;html=1;aspect=fixed;" parent="1" vertex="1">
          <mxGeometry x="560.94" y="310" width="60" height="60" as="geometry" />
        </mxCell>
        <mxCell id="7ZSRkaOjpOQk4Y71W81P-14" style="edgeStyle=orthogonalEdgeStyle;rounded=0;orthogonalLoop=1;jettySize=auto;html=1;exitX=1;exitY=0.5;exitDx=0;exitDy=0;entryX=0;entryY=0.5;entryDx=0;entryDy=0;" parent="1" source="7ZSRkaOjpOQk4Y71W81P-15" target="7ZSRkaOjpOQk4Y71W81P-16" edge="1">
          <mxGeometry relative="1" as="geometry" />
        </mxCell>
        <mxCell id="7ZSRkaOjpOQk4Y71W81P-24" style="edgeStyle=orthogonalEdgeStyle;rounded=0;orthogonalLoop=1;jettySize=auto;html=1;exitX=0;exitY=0.5;exitDx=0;exitDy=0;" parent="1" source="7ZSRkaOjpOQk4Y71W81P-15" target="7ZSRkaOjpOQk4Y71W81P-21" edge="1">
          <mxGeometry relative="1" as="geometry" />
        </mxCell>
        <mxCell id="7ZSRkaOjpOQk4Y71W81P-15" value="Dígito igual a 2?" style="rhombus;whiteSpace=wrap;html=1;" parent="1" vertex="1">
          <mxGeometry x="340" y="420" width="101.87" height="100" as="geometry" />
        </mxCell>
        <mxCell id="7ZSRkaOjpOQk4Y71W81P-16" value="Visualizar Progresso nos Hábitos" style="ellipse;whiteSpace=wrap;html=1;aspect=fixed;" parent="1" vertex="1">
          <mxGeometry x="472.50000000000006" y="440" width="60" height="60" as="geometry" />
        </mxCell>
        <mxCell id="7ZSRkaOjpOQk4Y71W81P-20" style="edgeStyle=orthogonalEdgeStyle;rounded=0;orthogonalLoop=1;jettySize=auto;html=1;exitX=1;exitY=0.5;exitDx=0;exitDy=0;entryX=0;entryY=0.5;entryDx=0;entryDy=0;" parent="1" source="7ZSRkaOjpOQk4Y71W81P-21" target="7ZSRkaOjpOQk4Y71W81P-22" edge="1">
          <mxGeometry relative="1" as="geometry" />
        </mxCell>
        <mxCell id="7ZSRkaOjpOQk4Y71W81P-28" style="edgeStyle=orthogonalEdgeStyle;rounded=0;orthogonalLoop=1;jettySize=auto;html=1;exitX=0;exitY=0.5;exitDx=0;exitDy=0;entryX=0.5;entryY=0;entryDx=0;entryDy=0;" parent="1" source="7ZSRkaOjpOQk4Y71W81P-21" target="7ZSRkaOjpOQk4Y71W81P-26" edge="1">
          <mxGeometry relative="1" as="geometry" />
        </mxCell>
        <mxCell id="7ZSRkaOjpOQk4Y71W81P-21" value="Dígito igual a 3?" style="rhombus;whiteSpace=wrap;html=1;" parent="1" vertex="1">
          <mxGeometry x="230" y="560" width="101.87" height="100" as="geometry" />
        </mxCell>
        <mxCell id="7ZSRkaOjpOQk4Y71W81P-22" value="Editar Hábitos" style="ellipse;whiteSpace=wrap;html=1;aspect=fixed;" parent="1" vertex="1">
          <mxGeometry x="370" y="580" width="60" height="60" as="geometry" />
        </mxCell>
        <mxCell id="7ZSRkaOjpOQk4Y71W81P-25" style="edgeStyle=orthogonalEdgeStyle;rounded=0;orthogonalLoop=1;jettySize=auto;html=1;exitX=1;exitY=0.5;exitDx=0;exitDy=0;entryX=0;entryY=0.5;entryDx=0;entryDy=0;" parent="1" source="7ZSRkaOjpOQk4Y71W81P-26" target="7ZSRkaOjpOQk4Y71W81P-27" edge="1">
          <mxGeometry relative="1" as="geometry" />
        </mxCell>
        <mxCell id="7ZSRkaOjpOQk4Y71W81P-31" value="" style="edgeStyle=orthogonalEdgeStyle;rounded=0;orthogonalLoop=1;jettySize=auto;html=1;" parent="1" source="7ZSRkaOjpOQk4Y71W81P-26" target="7ZSRkaOjpOQk4Y71W81P-30" edge="1">
          <mxGeometry relative="1" as="geometry" />
        </mxCell>
        <mxCell id="7ZSRkaOjpOQk4Y71W81P-26" value="Dígito igual a 4?" style="rhombus;whiteSpace=wrap;html=1;" parent="1" vertex="1">
          <mxGeometry x="339.07" y="740" width="100.93" height="100" as="geometry" />
        </mxCell>
        <mxCell id="7ZSRkaOjpOQk4Y71W81P-27" value="Deletar Hábito" style="ellipse;whiteSpace=wrap;html=1;aspect=fixed;" parent="1" vertex="1">
          <mxGeometry x="472.5" y="760" width="60" height="60" as="geometry" />
        </mxCell>
        <mxCell id="7ZSRkaOjpOQk4Y71W81P-29" style="edgeStyle=orthogonalEdgeStyle;rounded=0;orthogonalLoop=1;jettySize=auto;html=1;exitX=1;exitY=0.5;exitDx=0;exitDy=0;entryX=0.008;entryY=0.389;entryDx=0;entryDy=0;entryPerimeter=0;" parent="1" source="7ZSRkaOjpOQk4Y71W81P-1" target="7ZSRkaOjpOQk4Y71W81P-2" edge="1">
          <mxGeometry relative="1" as="geometry" />
        </mxCell>
        <mxCell id="7ZSRkaOjpOQk4Y71W81P-30" value="&lt;div&gt;&lt;br&gt;&lt;/div&gt;&lt;div&gt;&lt;font style=&quot;font-size: 14px;&quot;&gt;&quot;Opção inválida. Insira o dígito para a opção desejada novamente.&quot;&lt;/font&gt;&lt;/div&gt;" style="shape=document;whiteSpace=wrap;html=1;boundedLbl=1;" parent="1" vertex="1">
          <mxGeometry x="120" y="730" width="120" height="120" as="geometry" />
        </mxCell>
        <mxCell id="7ZSRkaOjpOQk4Y71W81P-32" style="edgeStyle=orthogonalEdgeStyle;rounded=0;orthogonalLoop=1;jettySize=auto;html=1;exitX=0;exitY=0.5;exitDx=0;exitDy=0;entryX=0;entryY=0;entryDx=0;entryDy=40;entryPerimeter=0;" parent="1" source="7ZSRkaOjpOQk4Y71W81P-30" target="7ZSRkaOjpOQk4Y71W81P-4" edge="1">
          <mxGeometry relative="1" as="geometry" />
        </mxCell>
        <mxCell id="-256payaFn2Az7FJpQGM-1" value="" style="group" parent="1" vertex="1" connectable="0">
          <mxGeometry x="397.5" y="190" width="142.5" height="50" as="geometry" />
        </mxCell>
        <mxCell id="7ZSRkaOjpOQk4Y71W81P-4" value="" style="verticalLabelPosition=bottom;verticalAlign=top;html=1;shape=card;whiteSpace=wrap;size=20;arcSize=12;" parent="-256payaFn2Az7FJpQGM-1" vertex="1">
          <mxGeometry width="142.5" height="50" as="geometry" />
        </mxCell>
        <mxCell id="7ZSRkaOjpOQk4Y71W81P-5" value="&lt;font style=&quot;font-size: 12px;&quot;&gt;Dígito de Escolha&lt;/font&gt;" style="text;html=1;align=center;verticalAlign=middle;resizable=0;points=[];autosize=1;strokeColor=none;fillColor=none;" parent="-256payaFn2Az7FJpQGM-1" vertex="1">
          <mxGeometry x="10" y="10" width="120" height="30" as="geometry" />
        </mxCell>
        <mxCell id="jLTH9HTdux2gprQKa7NV-1" value="Mais para frente será adicionado o Progredir no Hábito, a fim do usuário conseguir incrementar seu progresso de acordo com a frequência inserida" style="ellipse;shape=cloud;whiteSpace=wrap;html=1;" parent="1" vertex="1">
          <mxGeometry x="20" y="20" width="150" height="160" as="geometry" />
        </mxCell>
      </root>
    </mxGraphModel>
  </diagram>
</mxfile>
